<svg class="svg-icon" style="width: 1em;height: 1em;vertical-align: middle;fill: currentColor;overflow: hidden;" viewBox="0 0 1024 1024" version="1.1" xmlns="http://www.w3.org/2000/svg"><path d="M717.858 517.313c-8.245 0-16.528-2.602-23.595-7.978-17.061-13.052-20.328-37.464-7.295-54.543 25.608-33.549 39.172-73.445 39.172-115.353 0-106.767-89.364-193.625-199.207-193.625-21.488 0-38.909-17.42-38.909-38.907 0-21.487 17.42-38.908 38.909-38.908 152.739 0 277.021 121.775 277.021 271.439 0 59.139-19.073 115.353-55.15 162.581-7.655 10.032-19.243 15.294-30.946 15.294z" fill="#F29600" /><path d="M526.934 443.032c-57.108 0-103.577-46.468-103.577-103.593 0-57.126 46.468-103.576 103.577-103.576 57.105 0 103.592 46.45 103.592 103.576-0.001 57.125-46.487 103.593-103.592 103.593z m0-153.044c-27.282 0-49.452 22.188-49.452 49.451 0 27.28 22.17 49.47 49.452 49.47 27.279 0 49.468-22.19 49.468-49.47-0.001-27.263-22.189-49.451-49.468-49.451zM526.895 770.816a38.736 38.736 0 0 1-23.368-7.826c-17.174-12.937-20.592-37.33-7.675-54.485L686.816 455c12.918-17.173 37.311-20.612 54.484-7.675 17.156 12.938 20.595 37.331 7.676 54.485L558.013 755.315c-7.638 10.164-19.302 15.501-31.118 15.501z" fill="#F29600" /><path d="M336.006 517.313c-11.702 0-23.291-5.261-30.928-15.292-36.096-47.228-55.15-103.442-55.15-162.581C249.928 189.775 374.192 68 526.934 68c21.485 0 38.906 17.421 38.906 38.908 0 21.486-17.421 38.907-38.906 38.907-109.846 0-199.191 86.857-199.191 193.625 0 41.908 13.545 81.804 39.154 115.353 13.051 17.079 9.784 41.491-7.295 54.543a38.788 38.788 0 0 1-23.596 7.977z" fill="#F29600" /><path d="M526.971 770.816c-11.817 0-23.481-5.338-31.119-15.501L304.907 501.811c-12.937-17.154-9.48-41.548 7.675-54.485 17.155-12.937 41.548-9.499 54.486 7.675l190.945 253.504c12.919 17.155 9.499 41.549-7.675 54.485a38.737 38.737 0 0 1-23.367 7.826z" fill="#F29600" /><path d="M864.235 955.569H163.906a38.92 38.92 0 0 1-32.22-17.096 38.887 38.887 0 0 1-3.895-36.267l77.814-194.537c7.979-19.948 30.625-29.579 50.572-21.677 19.947 7.997 29.637 30.623 21.657 50.591l-56.461 141.173h585.393l-56.46-141.173c-7.979-19.968 1.709-42.594 21.657-50.591 19.967-7.902 42.593 1.729 50.571 21.677l77.814 194.537a38.887 38.887 0 0 1-3.894 36.267 38.913 38.913 0 0 1-32.219 17.096z" fill="#F29600" /></svg>