<svg class="svg-icon" style="width: 1em; height: 1em;vertical-align: middle;fill: currentColor;overflow: hidden;" viewBox="0 0 1024 1024" version="1.1" xmlns="http://www.w3.org/2000/svg"><path d="M35.669895 745.040817v-60.709822c0-7.929977 6.489981-14.419958 14.419958-14.419958h223.499345c7.929977 0 14.419958 6.489981 14.419958 14.419958v317.249071c0 7.929977-6.489981 14.419958-14.419958 14.419957H50.089853c-7.929977 0-14.419958-6.489981-14.419958-14.419957V879.020425" fill="#FFD632" /><path d="M274.169197 669.941037v309.639093c0 7.929977-6.489981 14.419958-14.419958 14.419958H36.249894c-0.199999 0-0.389999-0.02-0.589998-0.03v7.609978c0 7.929977 6.489981 14.419958 14.419957 14.419957h223.499345c7.929977 0 14.419958-6.489981 14.419958-14.419957V684.330995c0-7.729977-6.169982-14.079959-13.829959-14.389958z" fill="#FDA738" /><path d="M229.869327 953.330207h-17.999948v-9.999971h17.999948v9.999971z m-35.999895 0h-17.999947v-9.999971h17.999947v9.999971z m-35.999895 0h-17.999947v-9.999971h17.999947v9.999971z m-35.999894 0h-17.999947v-9.999971h17.999947v9.999971z m-35.999895 0H67.959801l-0.09-9.999971h17.999947v9.999971z m163.439522-10.949968l-9.519973-3.049991c0.179999-0.559998 0.269999-1.139997 0.27-1.719995v-14.699957h9.99997v14.699957c-0.01 1.609995-0.259999 3.219991-0.749997 4.769986z m-187.089452-6.009982h-9.999971v-17.999948h9.999971v17.999948z m187.829449-31.469908h-9.99997v-17.999947h9.99997v17.999947z m-187.829449-4.529987h-9.999971v-17.999947h9.999971v17.999947z m187.829449-31.469908h-9.99997v-17.999947h9.99997v17.999947z m-187.829449-4.529986h-9.999971v-26.449923h9.999971v26.449923z m187.829449-31.469908h-9.99997v-17.999947h9.99997v17.999947zM62.219818 819.920598h-9.999971v-17.999947h9.999971v17.999947z m187.829449-23.019933h-9.99997v-17.999947h9.99997v17.999947zM62.219818 783.920703h-9.999971v-17.999947h9.999971v17.999947z m187.829449-23.019932h-9.99997v-17.999947h9.99997v17.999947zM62.219818 747.920809h-9.999971v-17.999947h9.999971v17.999947z m187.829449-23.019933h-9.99997v-17.999947h9.99997v17.999947zM62.219818 711.920914h-9.999971v-10.469969c0-3.709989 1.319996-7.309979 3.729989-10.14997l7.629978 6.459981c-0.619998 0.729998-1.359996 1.969994-1.359996 3.689989v10.469969z m174.319489-15.749954c-0.699998-0.299999-1.449996-0.449999-2.229993-0.449998h-13.68996v-9.999971h13.68996c2.129994 0 4.199988 0.419999 6.159982 1.259996l-3.929989 9.189973z m-33.909901-0.449998h-17.999947v-9.999971h17.999947v9.999971z m-35.999894 0h-17.999947v-9.999971h17.999947v9.999971z m-35.999895 0h-17.999947v-9.999971h17.999947v9.999971z m-35.999894 0h-17.999948v-9.999971h17.999948v9.999971z" fill="#FFFFFF" /><path d="M271.999203 1024H23.99993c-13.229961 0-23.99993-10.769968-23.99993-23.99993V864.000469c0-4.419987 3.57999-7.999977 7.999977-7.999977s7.999977 3.57999 7.999976 7.999977v135.999601c0 4.409987 3.589989 7.999977 7.999977 7.999977h247.999273c4.409987 0 7.999977-3.589989 7.999977-7.999977V647.961102c0-4.409987-3.589989-7.999977-7.999977-7.999977H23.99993c-4.409987 0-7.999977 3.589989-7.999977 7.999977v67.369802c0 4.419987-3.57999 7.999977-7.999976 7.999977s-7.999977-3.57999-7.999977-7.999977v-67.369802c0-13.229961 10.769968-23.99993 23.99993-23.99993h247.999273c13.229961 0 23.99993 10.769968 23.99993 23.99993V1000.00007c0 13.229961-10.769968 23.99993-23.99993 23.99993z" fill="" /><path d="M7.999977 845.330523v-14.999956" fill="#FFD632" /><path d="M7.999977 853.3305c-4.419987 0-7.999977-3.57999-7.999977-7.999977v-14.999956c0-4.419987 3.57999-7.999977 7.999977-7.999976s7.999977 3.57999 7.999976 7.999976v14.999956c0 4.419987-3.57999 7.999977-7.999976 7.999977z" fill="" /><path d="M7.999977 783.000706v-45.669866" fill="#FFD632" /><path d="M7.999977 791.000683c-4.419987 0-7.999977-3.57999-7.999977-7.999977v-45.669866c0-4.419987 3.57999-7.999977 7.999977-7.999977s7.999977 3.57999 7.999976 7.999977V783.000706c0 4.419987-3.57999 7.999977-7.999976 7.999977z" fill="" /><path d="M396.158839 535.041432v-60.709822c0-7.929977 6.489981-14.419958 14.419958-14.419957h223.499345c7.929977 0 14.419958 6.489981 14.419958 14.419957v527.248456c0 7.929977-6.489981 14.419958-14.419958 14.419957h-223.499345c-7.929977 0-14.419958-6.489981-14.419958-14.419957V879.020425" fill="#FFD632" /><path d="M634.658141 459.941653v519.638477c0 7.929977-6.489981 14.419958-14.419958 14.419958h-223.499345c-0.199999 0-0.389999-0.02-0.589999-0.03v7.609978c0 7.929977 6.489981 14.419958 14.419958 14.419957h223.499345c7.929977 0 14.419958-6.489981 14.419958-14.419957V474.33161c0.01-7.729977-6.169982-14.079959-13.829959-14.389957z" fill="#FDA738" /><path d="M590.36827 953.330207h-17.999947v-9.999971h17.999947v9.999971z m-35.999894 0h-17.999947v-9.999971h17.999947v9.999971z m-35.999895 0h-17.999947v-9.999971h17.999947v9.999971z m-35.999894 0h-17.999947v-9.999971h17.999947v9.999971z m-35.999895 0h-17.909947l-0.09-9.999971h17.999947v9.999971z m163.429521-10.949968l-9.519972-3.049991c0.179999-0.559998 0.269999-1.139997 0.27-1.729995v-14.699957h9.99997v14.699957c0 1.629995-0.249999 3.229991-0.749998 4.779986z m-187.079451-6.009982h-9.999971v-17.999948h9.999971v17.999948z m187.829449-31.469908h-9.99997v-17.999947h9.99997v17.999947z m-187.829449-4.529987h-9.999971v-17.999947h9.999971v17.999947z m187.829449-31.469908h-9.99997v-17.999947h9.99997v17.999947z m-187.829449-4.529986h-9.999971v-17.999948h9.999971v17.999948z m187.829449-31.469908h-9.99997v-17.999947h9.99997v17.999947z m-187.829449-0.979997h-9.999971v-17.999948h9.999971v17.999948z m187.829449-35.019898h-9.99997v-17.999947h9.99997v17.999947z m-187.829449-0.979997h-9.999971v-17.999947h9.999971v17.999947z m187.829449-35.019897h-9.99997v-17.999947h9.99997v17.999947z m-187.829449-0.979997h-9.999971v-17.999948h9.999971v17.999948z m187.829449-35.019898h-9.99997v-17.999947h9.99997v17.999947z m-187.829449-0.979997h-9.999971v-17.999947h9.999971v17.999947z m187.829449-35.019897h-9.99997v-17.999948h9.99997v17.999948z m-187.829449-0.979997h-9.999971v-17.999948h9.999971v17.999948z m187.829449-35.019898h-9.99997v-17.999947h9.99997v17.999947z m-187.829449-0.979997h-9.999971v-17.999947h9.999971v17.999947z m187.829449-35.019897h-9.99997v-17.999948h9.99997v17.999948z m-187.829449-0.979997h-9.999971v-17.999948h9.999971v17.999948z m187.829449-35.019898h-9.99997v-17.999947h9.99997v17.999947z m-187.829449-0.979997h-9.999971v-17.999947h9.999971v17.999947z m187.829449-35.019897h-9.99997v-17.999948h9.99997v17.999948z m-187.829449-0.979998h-9.999971v-17.999947h9.999971v17.999947z m187.829449-35.019897h-9.99997v-17.449949c0-0.1 0-0.189999-0.01-0.289999l9.98997-0.509998c0.01 0.269999 0.02 0.529998 0.02 0.799997v17.449949z m-187.829449-0.979997h-9.999971v-16.469952c0-0.739998 0.05-1.499996 0.159999-2.229993l9.899971 1.419996c-0.04 0.269999-0.06 0.539998-0.059999 0.809997v16.469952z m170.3995-22.199935h-17.999947v-9.999971h17.999947v9.999971z m-35.999894 0h-17.999947v-9.999971h17.999947v9.999971z m-35.999895 0h-17.999947v-9.999971h17.999947v9.999971z m-35.999894 0h-17.999948v-9.999971h17.999948v9.999971z m-35.999895 0h-17.999947v-9.999971h17.999947v9.999971z" fill="#FFFFFF" /><path d="M632.498147 1024h-247.999273c-13.229961 0-23.99993-10.769968-23.99993-23.99993V864.000469c0-4.419987 3.57999-7.999977 7.999976-7.999977s7.999977 3.57999 7.999977 7.999977v135.999601c0 4.409987 3.589989 7.999977 7.999977 7.999977h247.999273c4.409987 0 7.999977-3.589989 7.999977-7.999977V437.961717c0-4.409987-3.589989-7.999977-7.999977-7.999977h-247.999273c-4.409987 0-7.999977 3.589989-7.999977 7.999977v67.369803c0 4.419987-3.57999 7.999977-7.999977 7.999976s-7.999977-3.57999-7.999976-7.999976v-67.369803c0-13.229961 10.769968-23.99993 23.99993-23.99993h247.999273c13.229961 0 23.99993 10.769968 23.99993 23.99993V1000.00007c0 13.229961-10.769968 23.99993-23.99993 23.99993z" fill="" /><path d="M368.49892 846.330521v-11.999965" fill="#FFD632" /><path d="M368.49892 854.330497c-4.419987 0-7.999977-3.57999-7.999976-7.999976v-11.999965c0-4.419987 3.57999-7.999977 7.999976-7.999977s7.999977 3.57999 7.999977 7.999977v11.999965c0 4.419987-3.589989 7.999977-7.999977 7.999976z" fill="" /><path d="M368.49892 783.000706V547.001397" fill="#FFD632" /><path d="M368.49892 791.000683c-4.419987 0-7.999977-3.57999-7.999976-7.999977V547.001397c0-4.419987 3.57999-7.999977 7.999976-7.999976s7.999977 3.57999 7.999977 7.999976v235.999309c0 4.419987-3.589989 7.999977-7.999977 7.999977z" fill="" /><path d="M763.667763 121.082645V60.372823c0-7.929977 6.489981-14.419958 14.419957-14.419958h223.499346c7.929977 0 14.419958 6.489981 14.419957 14.419958v941.217243c0 7.929977-6.489981 14.419958-14.419957 14.419957h-223.499346c-7.929977 0-14.419958-6.489981-14.419957-14.419957V879.020425" fill="#FFD632" /><path d="M1002.167064 45.982865v933.597265c0 7.929977-6.489981 14.419958-14.419958 14.419958h-223.499345c-0.199999 0-0.389999-0.02-0.589998-0.03v7.609978c0 7.929977 6.489981 14.419958 14.419957 14.419957h223.499346c7.929977 0 14.419958-6.489981 14.419957-14.419957V60.372823c0-7.739977-6.169982-14.079959-13.829959-14.389958z" fill="#FDA738" /><path d="M957.867194 953.330207h-17.999948v-9.999971h17.999948v9.999971z m-35.999895 0h-17.999947v-9.999971h17.999947v9.999971z m-35.999894 0h-17.999948v-9.999971h17.999948v9.999971z m-35.999895 0h-17.999947v-9.999971h17.999947v9.999971z m-35.999894 0h-17.909948l-0.09-9.999971h17.999948v9.999971z m163.439521-10.949968l-9.519972-3.049991c0.179999-0.559998 0.269999-1.139997 0.269999-1.719995v-14.699957h9.999971v14.699957c-0.01 1.609995-0.259999 3.219991-0.749998 4.769986z m-187.089452-6.009982h-9.999971v-17.999948h9.999971v17.999948z m187.82945-31.469908h-9.999971v-17.999947h9.999971v17.999947z m-187.82945-4.529987h-9.999971v-17.999947h9.999971v17.999947z m187.82945-31.469908h-9.999971v-17.999947h9.999971v17.999947z m-187.82945-4.529986h-9.999971v-17.999948h9.999971v17.999948z m187.82945-31.469908h-9.999971v-17.999947h9.999971v17.999947z m-187.82945-0.909997h-9.999971v-17.999948h9.999971v17.999948z m187.82945-35.089898h-9.999971v-17.999947h9.999971v17.999947z m-187.82945-0.909997h-9.999971v-17.999947h9.999971v17.999947z m187.82945-35.089897h-9.999971v-17.999947h9.999971v17.999947z m-187.82945-0.909998h-9.999971v-17.999947h9.999971v17.999947z m187.82945-35.089897h-9.999971v-17.999947h9.999971v17.999947z m-187.82945-0.909997h-9.999971v-17.999947h9.999971v17.999947z m187.82945-35.089897h-9.999971v-17.999948h9.999971v17.999948z m-187.82945-0.909998h-9.999971v-17.999947h9.999971v17.999947z m187.82945-35.089897h-9.999971v-17.999947h9.999971v17.999947z m-187.82945-0.909997h-9.999971v-17.999947h9.999971v17.999947z m187.82945-35.089897h-9.999971v-17.999948h9.999971v17.999948z m-187.82945-0.909998h-9.999971v-17.999947h9.999971v17.999947z m187.82945-35.089897h-9.999971v-17.999947h9.999971v17.999947z m-187.82945-0.909997h-9.999971v-17.999947h9.999971v17.999947z m187.82945-35.089897h-9.999971v-17.999948h9.999971v17.999948z m-187.82945-0.909998h-9.999971v-17.999947h9.999971v17.999947z m187.82945-35.089897h-9.999971v-17.999947h9.999971v17.999947z m-187.82945-0.909997h-9.999971v-17.999948h9.999971v17.999948z m187.82945-35.089897h-9.999971v-17.999948h9.999971v17.999948z m-187.82945-0.909998h-9.999971v-17.999947h9.999971v17.999947z m187.82945-35.089897h-9.999971v-17.999947h9.999971v17.999947z m-187.82945-0.909997h-9.999971v-17.999948h9.999971v17.999948z m187.82945-35.089898h-9.999971v-17.999947h9.999971v17.999947z m-187.82945-0.909997h-9.999971v-17.999947h9.999971v17.999947z m187.82945-35.089897h-9.999971v-17.999947h9.999971v17.999947z m-187.82945-0.909997h-9.999971v-17.999948h9.999971v17.999948z m187.82945-35.089898h-9.999971v-17.999947h9.999971v17.999947z m-187.82945-0.909997h-9.999971v-17.999947h9.999971v17.999947z m187.82945-35.089897h-9.999971v-17.999947h9.999971v17.999947z m-187.82945-0.909997h-9.999971v-17.999948h9.999971v17.999948z m187.82945-35.089898h-9.999971v-17.999947h9.999971v17.999947z m-187.82945-0.909997h-9.999971v-17.999947h9.999971v17.999947z m187.82945-35.089897h-9.999971v-17.999947h9.999971v17.999947z m-187.82945-0.909998h-9.999971v-17.999947h9.999971v17.999947z m187.82945-35.089897h-9.999971v-17.999947h9.999971v17.999947z m-187.82945-0.909997h-9.999971v-17.999947h9.999971v17.999947z m187.82945-35.089897h-9.999971v-17.999948h9.999971v17.999948z m-187.82945-0.909998h-9.999971v-17.999947h9.999971v17.999947z m187.82945-35.089897h-9.999971v-17.999947h9.999971v17.999947z m-187.82945-0.909997h-9.999971v-17.999947h9.999971v17.999947z m177.819479-34.819898c-0.16-2.989991-2.729992-5.419984-5.719983-5.419984h-1.729995v-9.999971h1.729995c8.359976 0 15.259955 6.539981 15.709954 14.879956l-9.989971 0.539999z m-177.759479-0.479999l-9.899971-1.389996c1.079997-7.729977 7.779977-13.54996 15.579954-13.54996h2.639992v9.999971h-2.639992c-2.849992 0-5.289985 2.129994-5.679983 4.939985z m152.309554-4.939985h-17.999948v-9.999971h17.999948v9.999971z m-35.999895 0h-17.999947v-9.999971h17.999947v9.999971z m-35.999895 0h-17.999947v-9.999971h17.999947v9.999971z m-35.999894 0h-17.999947v-9.999971h17.999947v9.999971z" fill="#FFFFFF" /><path d="M999.99707 1024H751.997797c-13.229961 0-23.99993-10.769968-23.99993-23.99993V864.000469c0-4.419987 3.57999-7.999977 7.999977-7.999977s7.999977 3.57999 7.999976 7.999977v135.999601c0 4.409987 3.589989 7.999977 7.999977 7.999977h247.999273c4.409987 0 7.999977-3.589989 7.999977-7.999977V24.00293c0-4.409987-3.589989-7.999977-7.999977-7.999977H751.997797c-4.409987 0-7.999977 3.589989-7.999977 7.999977v67.369802c0 4.419987-3.57999 7.999977-7.999976 7.999977s-7.999977-3.57999-7.999977-7.999977V24.00293c0-13.229961 10.769968-23.99993 23.99993-23.99993h247.999273c13.229961 0 23.99993 10.769968 23.99993 23.99993v975.99714c0 13.229961-10.769968 23.99993-23.99993 23.99993z" fill="" /><path d="M735.997844 765.640757l-1.199997-133.679608" fill="#FFD632" /><path d="M735.997844 773.640733c-4.379987 0-7.959977-3.52999-7.999977-7.929976l-1.199996-133.669609a7.997977 7.997977 0 0 1 7.929976-8.069976c4.379987-0.05 8.029976 3.50999 8.069977 7.929977l1.199996 133.669608a7.997977 7.997977 0 0 1-7.929976 8.069976H735.997844z" fill="" /><path d="M735.997844 832.72056l-1.199997-29.199914" fill="#FFD632" /><path d="M735.987844 840.720537c-4.269987 0-7.809977-3.36999-7.989977-7.669978l-1.199996-29.199914a8.001977 8.001977 0 0 1 7.669977-8.319976c4.409987-0.199999 8.139976 3.24999 8.319976 7.669978l1.199996 29.199914a8.001977 8.001977 0 0 1-7.669977 8.319976h-0.329999z" fill="" /><path d="M735.997844 558.301364V133.04261" fill="#FFD632" /><path d="M735.997844 566.301341c-4.419987 0-7.999977-3.57999-7.999977-7.999977V133.04261c0-4.419987 3.57999-7.999977 7.999977-7.999976s7.999977 3.57999 7.999976 7.999976V558.301364c0 4.419987-3.57999 7.999977-7.999976 7.999977z" fill="" /><path d="M190.729441 319.942063L28.609916 482.061588c-5.489984 5.489984-5.489984 14.479958 0 19.969941l73.479785 73.479785c5.489984 5.489984 14.479958 5.489984 19.969941 0l347.168983-354.598961 71.109792 65.769807L539.998418 55.332838 320.509061 68.752799l61.079821 64.119812-88.86974 85.06975" fill="#1DCA5D" /><path d="M107.249686 588.351276c-6.419981 0-12.449964-2.489993-16.96995-7.009979L7.009979 498.071541C2.489993 493.551554 0 487.521572 0 481.101591c0-6.419981 2.489993-12.449964 7.009979-16.969951L190.739441 280.402179c3.119991-3.119991 8.189976-3.119991 11.309967 0 3.119991 3.119991 3.119991 8.189976 0 11.309966L18.319946 475.441607c-3.119991 3.119991-3.119991 8.189976 0 11.309967l83.269756 83.269756c1.499996 1.499996 3.50999 2.319993 5.659984 2.319993s4.159988-0.829998 5.659983-2.319993l354.558961-354.558961c3.119991-3.119991 8.189976-3.119991 11.309967 0l77.529773 77.529773 15.549955-276.50919-276.50919 15.559954 77.529773 77.529773c1.499996 1.499996 2.339993 3.53999 2.339993 5.659983s-0.839998 4.159988-2.339993 5.659984l-55.249839 55.249838c-3.119991 3.119991-8.189976 3.129991-11.309966 0-3.119991-3.119991-3.119991-8.189976 0-11.309967l49.589854-49.589855-84.519752-84.519752c-2.229993-2.229993-2.939991-5.559984-1.819995-8.509975s3.879989-4.959985 7.01998-5.129985L579.898301 0.013c2.269993-0.13 4.499987 0.719998 6.109982 2.329993a7.993977 7.993977 0 0 1 2.329993 6.109982l-17.05995 303.299112a7.996977 7.996977 0 0 1-5.129985 7.019979 8.009977 8.009977 0 0 1-8.509975-1.819995l-84.509752-84.519752-348.898978 348.898978c-4.529987 4.529987-10.549969 7.019979-16.97995 7.019979z" fill="" /><path d="M220.099355 262.352231l-8.079976 8.089977" fill="#1DCA5D" /><path d="M212.019379 278.442184c-2.049994 0-4.089988-0.779998-5.659984-2.339993-3.119991-3.119991-3.119991-8.189976 0-11.309967l8.079977-8.079976c3.119991-3.119991 8.189976-3.119991 11.309967 0 3.119991 3.119991 3.119991 8.189976 0 11.309967l-8.079977 8.079976a7.973977 7.973977 0 0 1-5.649983 2.339993z" fill="" /><path d="M273.729198 208.732388l-30.58991 30.579911" fill="#1DCA5D" /><path d="M243.139288 247.312275c-2.049994 0-4.089988-0.779998-5.659984-2.339993-3.119991-3.119991-3.119991-8.189976 0-11.309967l30.579911-30.57991c3.119991-3.119991 8.189976-3.119991 11.309967 0 3.119991 3.119991 3.119991 8.189976 0 11.309967l-30.579911 30.57991a7.939977 7.939977 0 0 1-5.649983 2.339993z" fill="" /><path d="M459.798653 42.132877l-63.859813 3.589989" fill="#1DCA5D" /><path d="M395.92884 53.722843a7.999977 7.999977 0 0 1-0.439999-15.989954l63.849813-3.589989c4.399987-0.249999 8.189976 3.129991 8.439976 7.539978s-3.129991 8.189976-7.539978 8.439975l-63.849813 3.58999c-0.15 0.01-0.299999 0.01-0.459999 0.01z" fill="" /><path d="M522.40847 38.612887l-38.079889 2.139994" fill="#1DCA5D" /><path d="M484.318581 48.752857a7.999977 7.999977 0 0 1-0.439999-15.989953l38.079889-2.139994c4.399987-0.249999 8.189976 3.129991 8.439975 7.539978s-3.129991 8.189976-7.539978 8.439975l-38.079888 2.139994c-0.15 0-0.299999 0.01-0.459999 0.01z" fill="" /></svg>